<?xml version="1.0" encoding="utf-8"?>
<!-- Generator: Adobe Illustrator 24.0.1, SVG Export Plug-In . SVG Version: 6.00 Build 0)  -->
<svg version="1.1" id="Capa_1" xmlns="http://www.w3.org/2000/svg" xmlns:xlink="http://www.w3.org/1999/xlink" x="0px" y="0px"
	 viewBox="0 0 20 14.6" style="enable-background:new 0 0 20 14.6;" xml:space="preserve">
<style type="text/css">
	.st0{fill:#2C3D46;}
</style>
<path class="st0" d="M9.3,4.7l3.4,3c0-0.1,0-0.2,0-0.4c0-1.5-1.2-2.7-2.7-2.7C9.8,4.6,9.5,4.6,9.3,4.7z"/>
<path class="st0" d="M10,2.8c2.5,0,4.5,2,4.5,4.5c0,0.6-0.1,1.2-0.3,1.7l2.8,2.5c1.3-1.1,2.4-2.6,3-4.2c-1.6-4-5.4-6.8-10-6.8
	c-1.5,0-3,0.3-4.3,0.9l2.2,1.9C8.5,3,9.2,2.8,10,2.8z"/>
<path class="st0" d="M3.2,0.1C3-0.1,2.5,0,2.2,0.3s-0.3,0.8-0.1,1l1.4,1.3C2,3.8,0.7,5.4,0,7.3c1.6,4,5.5,6.8,10,6.8
	c1.8,0,3.5-0.5,5-1.3l1.8,1.6c0.3,0.2,0.7,0.1,1-0.2s0.3-0.8,0.1-1L3.2,0.1z M10,11.9c-2.5,0-4.5-2-4.5-4.5c0-0.9,0.3-1.7,0.7-2.4
	l1.4,1.2C7.4,6.5,7.3,6.9,7.3,7.3C7.3,8.8,8.5,10,10,10c0.5,0,1-0.1,1.4-0.4l1.4,1.2C12,11.5,11,11.9,10,11.9z"/>
</svg>
