<?xml version="1.0" encoding="utf-8"?>
<!-- Generator: Adobe Illustrator 24.0.1, SVG Export Plug-In . SVG Version: 6.00 Build 0)  -->
<svg version="1.1" id="Capa_1" xmlns="http://www.w3.org/2000/svg" xmlns:xlink="http://www.w3.org/1999/xlink" x="0px" y="0px"
	 viewBox="0 0 20 20" style="enable-background:new 0 0 20 20;" xml:space="preserve">
<style type="text/css">
	.st0{fill:#2F6A8A;enable-background:new    ;}
</style>
<title>twitter</title>
<g id="Capa_1-2">
	<path class="st0" d="M10,0C4.5,0,0,4.5,0,10s4.5,10,10,10s10-4.5,10-10S15.5,0,10,0z M14.6,7.8v0.3c0,3.6-2.9,6.5-6.4,6.5
		c0,0-0.1,0-0.1,0l0,0c-1.2,0-2.5-0.3-3.5-1c0.2,0,0.4,0,0.6,0c1,0,2-0.4,2.8-1c-1,0-1.8-0.7-2.1-1.6c0.1,0,0.3,0,0.4,0
		c0.2,0,0.4,0,0.6-0.1C5.7,10.7,5,9.8,5,8.8l0,0C5.3,8.9,5.7,9,6,9C5.4,8.6,5,7.9,5,7.1C5,6.7,5.1,6.3,5.3,6C6.5,7.4,8.2,8.3,10,8.3
		c0-0.2,0-0.3,0-0.5c0-1.3,1-2.3,2.3-2.3l0,0c0.6,0,1.2,0.3,1.7,0.7c0.5-0.1,1-0.3,1.4-0.6c-0.2,0.5-0.5,1-1,1.3
		c0.5-0.1,0.9-0.2,1.3-0.4C15.4,7.1,15,7.5,14.6,7.8z"/>
</g>
</svg>
