<?xml version="1.0" encoding="utf-8"?>
<!-- Generator: Adobe Illustrator 24.0.1, SVG Export Plug-In . SVG Version: 6.00 Build 0)  -->
<svg version="1.1" id="Capa_1" xmlns="http://www.w3.org/2000/svg" xmlns:xlink="http://www.w3.org/1999/xlink" x="0px" y="0px"
	 viewBox="0 0 20 20" style="enable-background:new 0 0 20 20;" xml:space="preserve">
<style type="text/css">
	.st0{fill:#5EA830;}
</style>
<g>
</g>
<polygon class="st0" points="14.7,7.7 8.7,13.7 5.3,10.3 6.7,9 8.7,11 13.3,6.3 "/>
<g>
	<g>
		<g>
		</g>
	</g>
</g>
<g>
	<path class="st0" d="M10,20C4.5,20,0,15.5,0,10C0,4.5,4.5,0,10,0c5.5,0,10,4.5,10,10C20,15.5,15.5,20,10,20z M10,2
		c-4.4,0-8,3.6-8,8s3.6,8,8,8s8-3.6,8-8S14.4,2,10,2z"/>
</g>
</svg>
