<?xml version="1.0" encoding="utf-8"?>
<!-- Generator: Adobe Illustrator 24.0.1, SVG Export Plug-In . SVG Version: 6.00 Build 0)  -->
<svg version="1.1" id="Capa_1" xmlns="http://www.w3.org/2000/svg" xmlns:xlink="http://www.w3.org/1999/xlink" x="0px" y="0px"
	 viewBox="0 0 20 20" style="enable-background:new 0 0 20 20;" xml:space="preserve">
<style type="text/css">
	.st0{fill:#326B8B;enable-background:new    ;}
</style>
<title>linkedIn</title>
<g id="Capa_2_1_">
	<g id="Capa_1-2">
		<path class="st0" d="M10,0C4.5,0,0,4.5,0,10s4.5,10,10,10s10-4.5,10-10S15.5,0,10,0z M7.1,15.1H4.7V7.8h2.4V15.1z M5.9,6.8
			L5.9,6.8C5.2,6.9,4.6,6.3,4.5,5.6S5,4.3,5.7,4.3c0.1,0,0.2,0,0.2,0c0.7-0.1,1.3,0.5,1.4,1.2S6.8,6.7,6.1,6.8C6,6.8,6,6.8,5.9,6.8z
			 M15.9,15.1h-2.4v-3.9c0-1-0.4-1.7-1.2-1.7c-0.6,0-1.1,0.4-1.2,0.9c-0.1,0.2-0.1,0.4-0.1,0.6v4.1H8.4c0,0,0-6.6,0-7.3h2.4v1
			c0.4-0.8,1.3-1.2,2.2-1.2c1.6,0,2.8,1,2.8,3.3L15.9,15.1z"/>
	</g>
</g>
</svg>
