<?xml version="1.0" encoding="utf-8"?>
<!-- Generator: Adobe Illustrator 24.0.1, SVG Export Plug-In . SVG Version: 6.00 Build 0)  -->
<svg version="1.1" id="Capa_1" xmlns="http://www.w3.org/2000/svg" xmlns:xlink="http://www.w3.org/1999/xlink" x="0px" y="0px"
	 viewBox="0 0 1362.93 365.22" style="enable-background:new 0 0 1362.93 365.22;" xml:space="preserve">
<style type="text/css">
	.st0{opacity:0.8;}
	.st1{fill:#326B8B;}
	.st2{opacity:0.85;}
	.st3{fill:#F9C812;}
	.st4{opacity:0.9;}
	.st5{fill:#61A931;}
	.st6{opacity:0.95;}
	.st7{fill:#E65B0E;}
	.st8{fill:#FFFFFF;}
</style>
<g>
	<g class="st0">
		<path class="st1" d="M198.56,142.89C157.45,102.6,98.53,73.87,56.95,64.67c-1.03-0.15-1.33-0.45-1.93-1.03
			c-0.9-0.88-0.35-2.05,0.93-3.35l55.01-56.14c9.38-9.57,95.34,25.18,149.06,77.82l34.81,34.11
			c46.82,45.88,80.31,128.17,69.65,139.04l-53.31,54.4c-1.28,1.31-3.46,1.73-4.23,0.12C295.78,264.6,266.09,209.06,233.38,177
			L198.56,142.89z"/>
	</g>
	<g class="st2">
		<path class="st3" d="M222.68,196.55c40.45-40.96,69.4-99.77,78.74-141.32c0.16-1.03,0.45-1.32,1.04-1.92
			c0.88-0.89,2.05-0.34,3.35,0.95l55.93,55.22c9.54,9.42-25.54,95.24-78.39,148.76l-34.25,34.69
			c-46.05,46.64-128.47,79.82-139.31,69.12L55.6,308.53c-1.3-1.29-1.72-3.47-0.1-4.23c45.09-10.99,100.75-40.47,132.93-73.06
			L222.68,196.55z"/>
	</g>
	<g class="st4">
		<path class="st5" d="M170.54,224.9c41.12,40.29,100.03,69.02,141.62,78.21c1.02,0.15,1.33,0.45,1.92,1.04
			c0.9,0.88,0.35,2.04-0.93,3.35l-55.01,56.14c-9.38,9.57-95.34-25.18-149.06-77.82l-34.81-34.11
			C27.45,205.82-6.03,123.52,4.63,112.65l53.3-54.39c1.28-1.3,3.46-1.73,4.23-0.12c11.15,45.05,40.85,100.59,73.56,132.65
			L170.54,224.9z"/>
	</g>
	<g class="st6">
		<path class="st7" d="M140.49,167.68c-40.38,41.03-69.23,99.88-78.51,141.45c-0.16,1.03-0.45,1.33-1.04,1.92
			c-0.88,0.9-2.05,0.34-3.35-0.94L1.57,254.99c-9.55-9.4,25.38-95.29,78.14-148.9l34.19-34.74C159.87,24.63,242.24-8.68,253.09,2
			l54.28,53.42c1.3,1.28,1.72,3.47,0.11,4.24c-45.08,11.06-100.68,40.63-132.81,73.28L140.49,167.68z"/>
	</g>
</g>
<g>
	<path class="st8" d="M600.86,129.83v152.01h-19.89V254.1c-5.46,9.25-12.97,16.43-22.52,21.53c-9.55,5.11-20.47,7.66-32.75,7.66
		c-20.08,0-35.92-5.54-47.52-16.62c-11.6-11.08-17.4-27.31-17.4-48.7v-88.14h20.76v86.12c0,15.99,3.99,28.13,11.99,36.41
		c7.99,8.29,19.4,12.43,34.21,12.43c16.18,0,28.95-4.86,38.31-14.59c9.36-9.73,14.04-23.26,14.04-40.6v-79.76H600.86z"/>
	<path class="st8" d="M765.93,145.29c11.41,11.08,17.11,27.22,17.11,48.41v88.14h-20.76v-86.12c0-15.79-4-27.84-11.99-36.12
		c-8-8.28-19.4-12.43-34.22-12.43c-16.57,0-29.68,4.87-39.33,14.59c-9.65,9.73-14.48,23.17-14.48,40.32v79.76H641.5V129.83h19.89
		v28.03c5.65-9.25,13.5-16.42,23.54-21.53c10.04-5.1,21.69-7.66,34.95-7.66C739.18,128.67,754.53,134.21,765.93,145.29z"/>
	<path class="st8" d="M981.89,126.36l-66.38,155.48h-47.08l-66.09-155.48h47.08l43.57,105.77l45.04-105.77H981.89z"/>
	<path class="st8" d="M1008.8,97.46c-5.26-4.81-7.9-10.79-7.9-17.92c0-7.13,2.63-13.1,7.9-17.92c5.26-4.81,12.09-7.22,20.47-7.22
		c8.38,0,15.21,2.31,20.47,6.94s7.9,10.4,7.9,17.34c0,7.51-2.63,13.73-7.9,18.64s-12.09,7.37-20.47,7.37
		C1020.88,104.69,1014.06,102.28,1008.8,97.46z M1006.46,126.36h45.62v155.48h-45.62V126.36z"/>
	<path class="st8" d="M1114.95,279.39c-12.48-3.18-22.42-7.18-29.83-11.99l15.21-32.37c7.02,4.43,15.5,8.05,25.44,10.84
		c9.94,2.79,19.69,4.19,29.24,4.19c19.3,0,28.95-4.72,28.95-14.16c0-4.43-2.63-7.61-7.9-9.54c-5.26-1.92-13.36-3.56-24.27-4.91
		c-12.87-1.92-23.5-4.14-31.88-6.65c-8.38-2.5-15.65-6.94-21.79-13.29c-6.14-6.36-9.21-15.41-9.21-27.17
		c0-9.83,2.87-18.54,8.63-26.15c5.75-7.61,14.13-13.53,25.15-17.77c11.01-4.24,24.02-6.36,39.04-6.36c11.11,0,22.17,1.21,33.19,3.61
		c11.01,2.41,20.13,5.74,27.34,9.97l-15.21,32.08c-13.84-7.7-28.95-11.56-45.33-11.56c-9.75,0-17.06,1.35-21.93,4.05
		c-4.88,2.7-7.31,6.17-7.31,10.4c0,4.82,2.63,8.19,7.9,10.12c5.26,1.93,13.64,3.76,25.15,5.49c12.87,2.12,23.4,4.38,31.58,6.79
		c8.19,2.41,15.3,6.79,21.35,13.15c6.04,6.36,9.07,15.22,9.07,26.59c0,9.64-2.92,18.21-8.77,25.72
		c-5.85,7.51-14.38,13.34-25.59,17.48c-11.21,4.14-24.52,6.21-39.92,6.21C1140.19,284.16,1127.42,282.57,1114.95,279.39z"/>
	<path class="st8" d="M1362.93,274.33c-4.49,3.28-9.99,5.73-16.52,7.37c-6.53,1.63-13.41,2.46-20.62,2.46
		c-18.72,0-33.19-4.72-43.43-14.16c-10.23-9.44-15.35-23.31-15.35-41.62v-63.87h-24.27v-34.68h24.27V91.97h45.62v37.86h39.19v34.68
		h-39.19v63.29c0,6.55,1.7,11.61,5.12,15.17c3.41,3.57,8.23,5.35,14.48,5.35c7.21,0,13.35-1.92,18.42-5.78L1362.93,274.33z"/>
</g>
</svg>
