<?xml version="1.0" encoding="utf-8"?>
<!-- Generator: Adobe Illustrator 24.0.1, SVG Export Plug-In . SVG Version: 6.00 Build 0)  -->
<svg version="1.1" id="Capa_1" xmlns="http://www.w3.org/2000/svg" xmlns:xlink="http://www.w3.org/1999/xlink" x="0px" y="0px"
	 viewBox="0 0 20 13.6" style="enable-background:new 0 0 20 13.6;" xml:space="preserve">
<style type="text/css">
	.st0{fill:#2C3D46;}
</style>
<g>
	<path class="st0" d="M10,4.1c-1.5,0-2.7,1.2-2.7,2.7S8.5,9.5,10,9.5s2.7-1.2,2.7-2.7S11.5,4.1,10,4.1z"/>
	<path class="st0" d="M10,0C5.5,0,1.6,2.8,0,6.8c1.6,4,5.5,6.8,10,6.8c4.6,0,8.4-2.8,10-6.8C18.4,2.8,14.6,0,10,0z M10,11.4
		c-2.5,0-4.5-2-4.5-4.5s2-4.5,4.5-4.5s4.5,2,4.5,4.5C14.5,9.3,12.5,11.4,10,11.4z"/>
</g>
</svg>
